# xmcd CD database file
#
# Track frame offsets:
#	225
#	17142
#	37210
#	58802
#	104937
#	128787
#	144820
#	165922
#	182345
#	210447
#	232637
#
# Disc length: 3187 seconds
#
# Revision: 0
# Processed by: cddbd v1.5.2PL0 Copyright (c) Steve Scherf et al.
# Submitted via: CDex 1.70beta2
#
DISCID=8d0c700b
DTITLE=Florian Poser - Florian Poser - Winds(1996)
DYEAR=1996
DGENRE=Jazz
TTITLE0=Next Please!
TTITLE1=Rainy Day
TTITLE2=Funky Marimba
TTITLE3=Winds
TTITLE4=Lazy Train
TTITLE5=Thinking of you
TTITLE6=The Musical Clock
TTITLE7=Autumn Mood
TTITLE8=The Fool on the Hill
TTITLE9=Spain
TTITLE10=Hello G.
EXTD=YEAR: 1996
EXTT0=
EXTT1=
EXTT2=
EXTT3=
EXTT4=
EXTT5=
EXTT6=
EXTT7=
EXTT8=
EXTT9=
EXTT10=
PLAYORDER=
